<svg width="62" height="62" viewBox="0 0 62 62" fill="none" xmlns="http://www.w3.org/2000/svg"><path d="M12.107 5.442h6.618v-1.97c0-.827.336-1.579.882-2.125a2.999 2.999 0 014.246 0 3 3 0 01.886 2.125v1.97h6.614v-1.97A3.012 3.012 0 0134.36.465a3.012 3.012 0 013.007 3.007v1.97h6.618V3.496c0-.827.337-1.579.882-2.125a3 3 0 014.247 0 3 3 0 01.885 2.125v1.946h.996a5.09 5.09 0 013.6 1.494 5.08 5.08 0 011.497 3.6V20c0 .501-.408.91-.91.91a.911.911 0 01-.91-.91v-2.62H30.105a.907.907 0 110-1.816h24.169v-5.028c0-.902-.367-1.72-.961-2.313a3.264 3.264 0 00-2.317-.965H50v1.943a3 3 0 01-.886 2.125 2.983 2.983 0 01-2.12.882 2.984 2.984 0 01-2.126-.882 2.997 2.997 0 01-.882-2.125V7.258h-6.618v1.92a3.011 3.011 0 01-3.007 3.007 3.012 3.012 0 01-3.007-3.008V7.258h-6.615v1.92a3 3 0 01-.885 2.124 2.997 2.997 0 01-4.246 0 2.997 2.997 0 01-.882-2.125V7.258h-6.618v1.92A3.012 3.012 0 019.1 12.183a3.012 3.012 0 01-3.007-3.007V7.258h-1c-.898 0-1.719.367-2.313.965a3.264 3.264 0 00-.964 2.313v5.03h24.172a.91.91 0 110 1.815H1.816V44.2A.908.908 0 010 44.2V10.536a5.08 5.08 0 011.497-3.6 5.09 5.09 0 013.597-1.494h.999v-1.97A3.011 3.011 0 019.1.465a3.012 3.012 0 013.007 3.007v1.97zM48.3 40.743c0-.5.406-.906.907-.906.504 0 .91.405.91.906v7.998a.894.894 0 01-.258.632l-5.55 6.529a.907.907 0 01-1.383-1.17l5.374-6.32v-7.669zm-5.536-.889a.906.906 0 01-1.267-.202.904.904 0 01.203-1.267 12.717 12.717 0 013.56-1.812 12.753 12.753 0 013.947-.625c1.802 0 3.515.37 5.066 1.044v-12.88a.91.91 0 011.82 0v13.844a12.885 12.885 0 012.162 1.74A12.754 12.754 0 0162 48.741a12.75 12.75 0 01-3.745 9.045 12.75 12.75 0 01-9.048 3.749 12.748 12.748 0 01-9.045-3.749 12.8 12.8 0 01-2.225-2.99H4.723c-1.3 0-2.482-.528-3.336-1.383A4.716 4.716 0 010 50.077v-1.765a.908.908 0 011.816 0v1.765a2.9 2.9 0 00.855 2.049 2.893 2.893 0 002.052.855h32.411a12.783 12.783 0 011.493-11.427.906.906 0 111.497 1.02 11.069 11.069 0 00-1.414 2.938 11.086 11.086 0 00-.477 3.23c0 3.03 1.228 5.777 3.212 7.76a10.94 10.94 0 007.762 3.217 10.95 10.95 0 007.764-3.216 10.945 10.945 0 003.213-7.761c0-3.031-1.229-5.778-3.213-7.762a10.947 10.947 0 00-7.764-3.216c-1.185 0-2.324.189-3.389.532-1.105.36-2.134.89-3.054 1.558zm-3.975-18.618h10.723c.501 0 .91.405.91.906v10.723a.91.91 0 01-.91.91H38.79a.909.909 0 01-.91-.91V22.142c0-.501.409-.906.91-.906zm9.817 1.816h-8.908v8.907h8.908v-8.907zM22.683 36.587h10.723c.505 0 .91.408.91.91V48.22c0 .5-.405.91-.91.91H22.683a.908.908 0 01-.907-.91V37.496c0-.5.406-.91.907-.91zm9.817 1.819h-8.907v8.908H32.5v-8.908zm-9.817-17.17h10.723c.505 0 .91.405.91.906v10.723c0 .505-.405.91-.91.91H22.683a.906.906 0 01-.907-.91V22.142c0-.501.406-.906.907-.906zm9.817 1.816h-8.907v8.907H32.5v-8.907zM6.577 36.587h10.727c.5 0 .906.408.906.91V48.22c0 .5-.405.91-.906.91H6.577a.908.908 0 01-.906-.91V37.496c0-.5.405-.91.906-.91zm9.817 1.819H7.487v8.908h8.907v-8.908zm-9.817-17.17h10.727c.5 0 .906.405.906.906v10.723c0 .505-.405.91-.906.91H6.577a.906.906 0 01-.906-.91V22.142c0-.501.405-.906.906-.906zm9.817 1.816H7.487v8.907h8.907v-8.907zM46.993 2.308a1.192 1.192 0 00-1.192 1.188v5.705c0 .326.134.625.35.841a1.18 1.18 0 001.679 0c.216-.216.35-.515.35-.84V3.495a1.18 1.18 0 00-.35-.838 1.18 1.18 0 00-.837-.35zM9.94 2.631a1.19 1.19 0 00-2.032.841v5.705c0 .326.134.625.35.841a1.189 1.189 0 002.032-.84V3.471c0-.326-.134-.625-.35-.84zm11.791-.35c-.33 0-.625.134-.841.35a1.19 1.19 0 00-.35.841v5.705c0 .326.134.625.35.841a1.183 1.183 0 001.679 0 1.19 1.19 0 00.35-.84V3.471c0-.326-.134-.625-.35-.84a1.18 1.18 0 00-.838-.351zm12.629 0a1.19 1.19 0 00-.841.35c-.217.216-.35.515-.35.841v5.705c0 .326.133.625.35.841a1.187 1.187 0 001.682 0 1.19 1.19 0 00.35-.84V3.471c0-.326-.134-.625-.35-.84a1.189 1.189 0 00-.841-.351z" fill="#07A0C3"/></svg>