<svg width="62" height="62" viewBox="0 0 62 62" fill="none" xmlns="http://www.w3.org/2000/svg"><path d="M56.26 45.017a.838.838 0 01-.741-1.226 27.89 27.89 0 00.723-24.102.838.838 0 111.53-.683 29.576 29.576 0 01-.769 25.563.838.838 0 01-.743.448zM44.297 57.032a.838.838 0 01-.388-1.58 24.747 24.747 0 002.059-1.201.838.838 0 01.914 1.405 27.38 27.38 0 01-2.198 1.28.837.837 0 01-.387.096zm-13.276 3.287a29.362 29.362 0 01-20.755-8.585.838.838 0 011.185-1.185 27.69 27.69 0 0027.031 7.067.838.838 0 01.453 1.613 29.284 29.284 0 01-7.914 1.09zm19.987-8.214a.838.838 0 01-.535-1.483c.028-.023.052-.048.076-.073a25.55 25.55 0 001.532-1.675.838.838 0 111.29 1.069 26.172 26.172 0 01-1.636 1.791 2.482 2.482 0 01-.192.178.838.838 0 01-.535.193zm-45.868-8.3a.838.838 0 01-.76-.486 29.33 29.33 0 0147.355-33.055.836.836 0 01-.271 1.367.837.837 0 01-.914-.181A27.654 27.654 0 005.9 42.617a.838.838 0 01-.76 1.19v-.002z" fill="#07A0C3"/><path d="M51.143 11.694h-6.25a.838.838 0 110-1.675h5.413v-5.41a.838.838 0 011.675 0v6.25a.838.838 0 01-.838.835zM10.857 58.23a.838.838 0 01-.838-.838v-6.249a.838.838 0 01.838-.838h6.251a.838.838 0 010 1.676h-5.413v5.41a.838.838 0 01-.838.839zM31 49.432A18.432 18.432 0 1149.432 31 18.453 18.453 0 0131 49.432zm0-35.189A16.757 16.757 0 1047.757 31 16.776 16.776 0 0031 14.243z" fill="#07A0C3"/><path d="M33.448 38.048c1.713 0 3.176-.553 4.389-1.66a.528.528 0 01.725 0l.839.826a.475.475 0 01.015.675 7.285 7.285 0 01-2.464 1.623c-1.104.448-2.312.672-3.624.672-1.392 0-2.68-.256-3.864-.768a8.464 8.464 0 01-3-2.208 8.226 8.226 0 01-1.728-3.288H22.1a.1.1 0 01-.1-.1v-1.144a.1.1 0 01.1-.1h2.396a13.586 13.586 0 01-.048-.984c0-.24.016-.568.048-.984H22.1a.1.1 0 01-.1-.1v-1.144a.1.1 0 01.1-.1h2.636a8.226 8.226 0 011.728-3.288 8.217 8.217 0 013-2.184c1.184-.528 2.472-.792 3.864-.792 1.328 0 2.536.224 3.624.672a7.4 7.4 0 012.458 1.6.475.475 0 01-.012.677l-.836.822a.53.53 0 01-.725.002c-1.2-1.091-2.663-1.637-4.389-1.637-1.456 0-2.736.376-3.84 1.128a6 6 0 00-2.328 3h7.508a.1.1 0 01.1.1v1.244h-7.944a6.318 6.318 0 00-.072.984c0 .336.024.664.072.984h7.844a.1.1 0 01.1.1v1.144a.1.1 0 01-.1.1H27.28a6 6 0 002.328 3c1.104.752 2.384 1.128 3.84 1.128z" fill="#07A0C3"/></svg>