<svg width="80" height="37" viewBox="0 0 80 37" fill="none" xmlns="http://www.w3.org/2000/svg"><g opacity=".75" fill="#fff"><path opacity=".75" d="M6.498 17.784h8.384a.843.843 0 01.166 0c.06-.01.194-.218.194-.49 0-.137-.328-.5-.722-.5a.38.38 0 01-.287-.121c-.104-.113-.144-.282-.126-.535.07-.946-.012-2.344-.918-3.207l-5.855.532c-.683.893-.749 2.014-.719 2.647a.459.459 0 010 .079c-.017.2-.036.426-.203.592a.507.507 0 01-.308.149.723.723 0 00-.104.023c-.22.068-.354.179-.4.327a.643.643 0 00.074.473c.087.092.272.079.412.061l-.017-.035h.346a.255.255 0 01.083.005zm5.946-1.643c.08.032-.023.425-.073.591-.05.166-.079.262-.163.36a.837.837 0 01-.389.236 1.23 1.23 0 01-.424.065c-.19 0-.32-.045-.57-.13-.766-.26-1.68-.293-1.19-.299.046 0 .57-.048 1.142-.104.207-.013.413-.04.616-.078.225-.053.48-.115.717-.306.22-.178.283-.357.334-.335zm-1.263-2.747c.38-.06.777.463.888 1.167.11.704-.109 1.322-.488 1.382-.38.06-.778-.463-.888-1.167-.11-.704.105-1.322.485-1.382h.003zm-1.85.229c.39-.032.756.527.816 1.25.06.722-.207 1.333-.597 1.366-.39.033-.755-.527-.815-1.25-.061-.721.203-1.334.593-1.366h.003zm16.521 11.025c.307 0 .446-.2.446-.65V20.5c0-.427-.118-.646-.45-.646-.28 0-.435.203-.435.656v3.496c.003.422.145.643.439.643z"/><path opacity=".75" d="M10.614 27.347v-.191L6.3 18.262l-.023.005a1.937 1.937 0 01-.352.038.797.797 0 01-.599-.226 1.076 1.076 0 01-.19-.9c.06-.225.233-.524.723-.676a1.3 1.3 0 01.209-.047l.01-.009c.042-.041.054-.164.064-.287v-.027c-.03-.63.028-1.702.604-2.646l-.248-2.718-2.171.197v1.873a.375.375 0 01.048.665l.508 1.045H3.479l.509-1.045a.373.373 0 01.047-.665v-1.847l-.868.08-.047-.518 13.545-1.23.047.518-3.2.29.247 2.717c.637.77.926 1.899.82 3.324a.727.727 0 000 .149c.607.033 1.135.556 1.135.972 0 .459-.253.953-.66.962l-4.292 8.854h24.161c1.4-2.654 2.13-5.61 2.126-8.61C37.05 8.282 28.755 0 18.525 0S0 8.282 0 18.5 8.293 37 18.525 37c3.33.001 6.6-.895 9.464-2.594a18.507 18.507 0 006.808-7.06H10.614zm21.182-8.52h3.315v1.164h-1.003v5.676h-1.315v-5.676h-.997v-1.163zm-3.642 4.73h1.288v.474c0 .45.112.659.412.659s.375-.31.375-.631c0-.646-.122-.832-.821-1.419-.771-.653-1.168-1.039-1.168-2.05 0-.976.324-1.876 1.62-1.876 1.378 0 1.58.938 1.58 1.72v.395H30.2v-.41c0-.415-.069-.62-.329-.62-.243 0-.321.209-.321.596 0 .412.075.615.64 1.056 1.008.789 1.37 1.234 1.37 2.36 0 1.07-.368 1.953-1.728 1.953-1.306 0-1.678-.788-1.678-1.8v-.406zm-4.073-2.936c0-1.32.727-1.897 1.781-1.897 1.055 0 1.775.567 1.775 1.932v3.173c0 1.356-.64 1.938-1.837 1.938-1.135 0-1.72-.596-1.72-1.925v-3.221zm-4.212-1.795h1.318v2.632h.859v-2.63h1.326v6.838h-1.326v-3.043h-.86v3.043H19.87v-6.84zm-.808 1.735v.307h-1.326v-.373c0-.331-.04-.638-.405-.638-.302 0-.413.22-.413.666v3.505c0 .466.15.636.412.636.321 0 .43-.249.43-.81v-.985h-.453v-1.113h1.775v3.91h-.99a3.744 3.744 0 01-.061-.506c-.217.48-.657.609-1.08.609-1.066 0-1.366-.789-1.366-1.91v-3.217c0-1.049.435-1.917 1.742-1.917 1.577 0 1.735 1.147 1.735 1.836z"/><path opacity=".75" d="M10.913 18.256v4.935h1.223l2.392-4.935h-3.615zm-.473 4.935v-4.935H6.825l2.392 4.935h1.223zm69.545 4.156H34.797l.131-.237h45.057v.237zm-40.859-1.681l-.775-6.838h1.387a125.1 125.1 0 01.268 4.62h.046c.138-1.34.302-3.201.448-4.62h1.133c.14 1.34.298 3.174.426 4.596h.053a186.1 186.1 0 01.276-4.596h1.3l-.869 6.838h-1.361c-.134-1.2-.306-2.522-.428-3.936h-.046c-.132 1.392-.337 2.7-.481 3.936h-1.377zm6.403-2.972v2.972h-1.315v-6.838h1.709c1.147 0 1.714.504 1.714 1.7v.245c0 .975-.389 1.262-.683 1.404.426.205.626.518.626 1.471 0 .66-.01 1.656.047 2.018h-1.274c-.085-.309-.079-1.199-.079-2.072 0-.77-.089-.9-.59-.9h-.155zm.004-1.037h.162c.44 0 .62-.139.62-.775v-.33c0-.459-.092-.687-.577-.687h-.205v1.792zm4.135-2.829v6.838h-1.316v-6.838h1.316zm1.457 1.163h-.997v-1.163h3.316v1.163H52.44v5.676h-1.315v-5.676zm5.509 2.655h-1.412v1.865h1.658l-.158 1.155h-2.818v-6.838h2.806v1.163h-1.488v1.498h1.412v1.157zm2.029.048v2.972h-1.315v-6.838h1.71c1.147 0 1.713.504 1.713 1.7v.245c0 .975-.39 1.262-.683 1.404.426.205.626.518.626 1.471 0 .66-.01 1.656.047 2.018h-1.274c-.085-.309-.079-1.199-.079-2.072 0-.77-.088-.9-.59-.9h-.155zm0-1.037h.163c.44 0 .62-.139.62-.775v-.33c0-.459-.093-.687-.578-.687h-.205v1.792zm3.577 2.533v.22c0 .631.276.891.674.891.474 0 .654-.3.654-.867 0-.615-.185-.86-.747-1.237-.68-.454-.986-.81-.986-1.508 0-.684.297-1.262 1.105-1.262.868 0 1.078.613 1.078 1.267v.257h-.496v-.26c0-.495-.132-.816-.597-.816-.41 0-.58.278-.58.764s.145.69.695 1.066c.656.442 1.043.796 1.043 1.65 0 .897-.37 1.393-1.198 1.393-.906 0-1.157-.63-1.157-1.322v-.236h.512zm3.005-1.042v.905c0 .594.108 1.248.702 1.248.547 0 .665-.42.665-1v-.056h.499v.047c0 .637-.158 1.456-1.175 1.456-.91 0-1.19-.63-1.19-1.68v-2.085c0-.836.31-1.556 1.213-1.556.92 0 1.163.735 1.163 1.563v1.158h-1.877zm1.383-.435v-.728c0-.484-.054-1.11-.678-1.11-.599 0-.704.521-.704 1.118v.72h1.382zm1.308-.443c0-.814 0-1.352-.01-1.76h.484c.01.16.022.39.022.788.182-.592.619-.833 1.053-.85v.623c-.673.008-1.046.53-1.046 1.374v3.224h-.503V22.27zm2.495-1.76c.149.768.724 3.704.825 4.566h.01c.069-.742.71-3.722.855-4.567h.513l-1.09 5.157h-.584L69.9 20.51h.531zm2.831 0h.503v5.156h-.503V20.51zm0-1.995h.503v1.01h-.503v-1.01zm3.686 5.582v.072c0 .861-.22 1.576-1.175 1.576-.878 0-1.145-.627-1.145-1.655v-2.165c0-.895.346-1.498 1.184-1.498.909 0 1.133.675 1.133 1.398v.22h-.508v-.149c0-.519-.087-1.02-.637-1.02-.468 0-.664.345-.664 1.08v2.195c0 .545.105 1.15.648 1.15.463 0 .653-.283.653-1.103v-.105l.511.004zm1.174-.949v.905c0 .594.11 1.248.704 1.248.546 0 .664-.42.664-1v-.056h.498v.047c0 .637-.158 1.456-1.175 1.456-.91 0-1.189-.63-1.189-1.68v-2.085c0-.836.31-1.556 1.213-1.556.92 0 1.163.735 1.163 1.563v1.158h-1.878zm1.384-.435v-.728c0-.484-.055-1.11-.677-1.11-.6 0-.705.521-.705 1.118v.72h1.382z"/></g><g opacity=".75" fill="#fff"><path opacity=".75" d="M6.498 17.784h8.384a.843.843 0 01.166 0c.06-.01.194-.218.194-.49 0-.137-.328-.5-.722-.5a.38.38 0 01-.287-.121c-.104-.113-.144-.282-.126-.535.07-.946-.012-2.344-.918-3.207l-5.855.532c-.683.893-.749 2.014-.719 2.647a.459.459 0 010 .079c-.017.2-.036.426-.203.592a.507.507 0 01-.308.149.723.723 0 00-.104.023c-.22.068-.354.179-.4.327a.643.643 0 00.074.473c.087.092.272.079.412.061l-.017-.035h.346a.255.255 0 01.083.005zm5.946-1.643c.08.032-.023.425-.073.591-.05.166-.079.262-.163.36a.837.837 0 01-.389.236 1.23 1.23 0 01-.424.065c-.19 0-.32-.045-.57-.13-.766-.26-1.68-.293-1.19-.299.046 0 .57-.048 1.142-.104.207-.013.413-.04.616-.078.225-.053.48-.115.717-.306.22-.178.283-.357.334-.335zm-1.263-2.747c.38-.06.777.463.888 1.167.11.704-.109 1.322-.488 1.382-.38.06-.778-.463-.888-1.167-.11-.704.105-1.322.485-1.382h.003zm-1.85.229c.39-.032.756.527.816 1.25.06.722-.207 1.333-.597 1.366-.39.033-.755-.527-.815-1.25-.061-.721.203-1.334.593-1.366h.003zm16.521 11.025c.307 0 .446-.2.446-.65V20.5c0-.427-.118-.646-.45-.646-.28 0-.435.203-.435.656v3.496c.003.422.145.643.439.643z"/><path opacity=".75" d="M10.614 27.347v-.191L6.3 18.262l-.023.005a1.937 1.937 0 01-.352.038.797.797 0 01-.599-.226 1.076 1.076 0 01-.19-.9c.06-.225.233-.524.723-.676a1.3 1.3 0 01.209-.047l.01-.009c.042-.041.054-.164.064-.287v-.027c-.03-.63.028-1.702.604-2.646l-.248-2.718-2.171.197v1.873a.375.375 0 01.048.665l.508 1.045H3.479l.509-1.045a.373.373 0 01.047-.665v-1.847l-.868.08-.047-.518 13.545-1.23.047.518-3.2.29.247 2.717c.637.77.926 1.899.82 3.324a.727.727 0 000 .149c.607.033 1.135.556 1.135.972 0 .459-.253.953-.66.962l-4.292 8.854h24.161c1.4-2.654 2.13-5.61 2.126-8.61C37.05 8.282 28.755 0 18.525 0S0 8.282 0 18.5 8.293 37 18.525 37c3.33.001 6.6-.895 9.464-2.594a18.507 18.507 0 006.808-7.06H10.614zm21.182-8.52h3.315v1.164h-1.003v5.676h-1.315v-5.676h-.997v-1.163zm-3.642 4.73h1.288v.474c0 .45.112.659.412.659s.375-.31.375-.631c0-.646-.122-.832-.821-1.419-.771-.653-1.168-1.039-1.168-2.05 0-.976.324-1.876 1.62-1.876 1.378 0 1.58.938 1.58 1.72v.395H30.2v-.41c0-.415-.069-.62-.329-.62-.243 0-.321.209-.321.596 0 .412.075.615.64 1.056 1.008.789 1.37 1.234 1.37 2.36 0 1.07-.368 1.953-1.728 1.953-1.306 0-1.678-.788-1.678-1.8v-.406zm-4.073-2.936c0-1.32.727-1.897 1.781-1.897 1.055 0 1.775.567 1.775 1.932v3.173c0 1.356-.64 1.938-1.837 1.938-1.135 0-1.72-.596-1.72-1.925v-3.221zm-4.212-1.795h1.318v2.632h.859v-2.63h1.326v6.838h-1.326v-3.043h-.86v3.043H19.87v-6.84zm-.808 1.735v.307h-1.326v-.373c0-.331-.04-.638-.405-.638-.302 0-.413.22-.413.666v3.505c0 .466.15.636.412.636.321 0 .43-.249.43-.81v-.985h-.453v-1.113h1.775v3.91h-.99a3.744 3.744 0 01-.061-.506c-.217.48-.657.609-1.08.609-1.066 0-1.366-.789-1.366-1.91v-3.217c0-1.049.435-1.917 1.742-1.917 1.577 0 1.735 1.147 1.735 1.836z"/><path opacity=".75" d="M10.913 18.256v4.935h1.223l2.392-4.935h-3.615zm-.473 4.935v-4.935H6.825l2.392 4.935h1.223zm69.545 4.156H34.797l.131-.237h45.057v.237zm-40.859-1.681l-.775-6.838h1.387a125.1 125.1 0 01.268 4.62h.046c.138-1.34.302-3.201.448-4.62h1.133c.14 1.34.298 3.174.426 4.596h.053a186.1 186.1 0 01.276-4.596h1.3l-.869 6.838h-1.361c-.134-1.2-.306-2.522-.428-3.936h-.046c-.132 1.392-.337 2.7-.481 3.936h-1.377zm6.403-2.972v2.972h-1.315v-6.838h1.709c1.147 0 1.714.504 1.714 1.7v.245c0 .975-.389 1.262-.683 1.404.426.205.626.518.626 1.471 0 .66-.01 1.656.047 2.018h-1.274c-.085-.309-.079-1.199-.079-2.072 0-.77-.089-.9-.59-.9h-.155zm.004-1.037h.162c.44 0 .62-.139.62-.775v-.33c0-.459-.092-.687-.577-.687h-.205v1.792zm4.135-2.829v6.838h-1.316v-6.838h1.316zm1.457 1.163h-.997v-1.163h3.316v1.163H52.44v5.676h-1.315v-5.676zm5.509 2.655h-1.412v1.865h1.658l-.158 1.155h-2.818v-6.838h2.806v1.163h-1.488v1.498h1.412v1.157zm2.029.048v2.972h-1.315v-6.838h1.71c1.147 0 1.713.504 1.713 1.7v.245c0 .975-.39 1.262-.683 1.404.426.205.626.518.626 1.471 0 .66-.01 1.656.047 2.018h-1.274c-.085-.309-.079-1.199-.079-2.072 0-.77-.088-.9-.59-.9h-.155zm0-1.037h.163c.44 0 .62-.139.62-.775v-.33c0-.459-.093-.687-.578-.687h-.205v1.792zm3.577 2.533v.22c0 .631.276.891.674.891.474 0 .654-.3.654-.867 0-.615-.185-.86-.747-1.237-.68-.454-.986-.81-.986-1.508 0-.684.297-1.262 1.105-1.262.868 0 1.078.613 1.078 1.267v.257h-.496v-.26c0-.495-.132-.816-.597-.816-.41 0-.58.278-.58.764s.145.69.695 1.066c.656.442 1.043.796 1.043 1.65 0 .897-.37 1.393-1.198 1.393-.906 0-1.157-.63-1.157-1.322v-.236h.512zm3.005-1.042v.905c0 .594.108 1.248.702 1.248.547 0 .665-.42.665-1v-.056h.499v.047c0 .637-.158 1.456-1.175 1.456-.91 0-1.19-.63-1.19-1.68v-2.085c0-.836.31-1.556 1.213-1.556.92 0 1.163.735 1.163 1.563v1.158h-1.877zm1.383-.435v-.728c0-.484-.054-1.11-.678-1.11-.599 0-.704.521-.704 1.118v.72h1.382zm1.308-.443c0-.814 0-1.352-.01-1.76h.484c.01.16.022.39.022.788.182-.592.619-.833 1.053-.85v.623c-.673.008-1.046.53-1.046 1.374v3.224h-.503V22.27zm2.495-1.76c.149.768.724 3.704.825 4.566h.01c.069-.742.71-3.722.855-4.567h.513l-1.09 5.157h-.584L69.9 20.51h.531zm2.831 0h.503v5.156h-.503V20.51zm0-1.995h.503v1.01h-.503v-1.01zm3.686 5.582v.072c0 .861-.22 1.576-1.175 1.576-.878 0-1.145-.627-1.145-1.655v-2.165c0-.895.346-1.498 1.184-1.498.909 0 1.133.675 1.133 1.398v.22h-.508v-.149c0-.519-.087-1.02-.637-1.02-.468 0-.664.345-.664 1.08v2.195c0 .545.105 1.15.648 1.15.463 0 .653-.283.653-1.103v-.105l.511.004zm1.174-.949v.905c0 .594.11 1.248.704 1.248.546 0 .664-.42.664-1v-.056h.498v.047c0 .637-.158 1.456-1.175 1.456-.91 0-1.189-.63-1.189-1.68v-2.085c0-.836.31-1.556 1.213-1.556.92 0 1.163.735 1.163 1.563v1.158h-1.878zm1.384-.435v-.728c0-.484-.055-1.11-.677-1.11-.6 0-.705.521-.705 1.118v.72h1.382z"/></g></svg>