<svg width="20" height="20" viewBox="0 0 20 20" fill="none" xmlns="http://www.w3.org/2000/svg"><g clip-path="url(#clip0)"><path d="M9.597 12.3c-1.715-1.41-2.86-3.15-3.462-4.14l-.449-.847c.157-.168 1.354-1.45 1.873-2.146.652-.873-.293-1.662-.293-1.662S4.606.844 4 .316C3.393-.212 2.695.081 2.695.081 1.421.905.1 1.621.021 5.063c-.003 3.223 2.444 6.547 5.09 9.12 2.65 2.907 6.288 5.82 9.806 5.817 3.442-.078 4.158-1.4 4.98-2.674 0 0 .295-.697-.233-1.304-.529-.606-3.19-3.267-3.19-3.267s-.788-.946-1.662-.293c-.651.487-1.82 1.57-2.102 1.832 0 0-1.956-1.042-3.113-1.994z" fill="#086788"/></g><defs><clipPath id="clip0"><path fill="#fff" d="M0 0h20v20H0z"/></clipPath></defs></svg>