<svg width="62" height="62" viewBox="0 0 62 62" fill="none" xmlns="http://www.w3.org/2000/svg"><path d="M59.632 32.917l-2.54-.814a1.063 1.063 0 01-.685-.694 16.378 16.378 0 00-2.401-4.749 17.435 17.435 0 00-1.604-1.892c.375-1.643.579-3.503.552-5.11-.038-2.3-.497-3.648-1.404-4.123-.489-.256-1.976-1.034-10.025 2.65a2.93 2.93 0 00-.533.318 34.997 34.997 0 00-1.655-.402c-.068-.015-.137-.028-.205-.042a12.292 12.292 0 001.105-4.57.902.902 0 10-1.803-.08 10.483 10.483 0 01-3.068 6.958 10.446 10.446 0 01-3.8 2.428 26.167 26.167 0 00-7.263 0 10.445 10.445 0 01-3.801-2.428 10.442 10.442 0 01-3.079-7.432c0-2.808 1.094-5.447 3.079-7.432a10.442 10.442 0 017.432-3.079c2.808 0 5.447 1.093 7.432 3.079a10.505 10.505 0 011.96 2.705.902.902 0 101.612-.811 12.304 12.304 0 00-2.295-3.17A12.235 12.235 0 0027.934.619a12.23 12.23 0 00-8.708 3.608 12.235 12.235 0 00-3.607 8.708c0 3.29 1.28 6.382 3.607 8.708a12.308 12.308 0 002.173 1.732 25.44 25.44 0 00-1.668.493.902.902 0 10.572 1.712 24.216 24.216 0 0115.262 0 .902.902 0 10.572-1.712 25.302 25.302 0 00-1.668-.493 12.304 12.304 0 003.746-3.663 34.27 34.27 0 011.705.377c-.01.04-.02.079-.028.119-.44 2.088-.412 3.935.085 5.489.446 1.397 1.25 2.528 2.392 3.363 1.346.985 2.97 1.41 4.442 1.41 1.107 0 2.128-.241 2.878-.666.848-.48 1.559-1.492 2.121-3.012a14.57 14.57 0 012.875 5.158 2.87 2.87 0 001.857 1.872l2.54.814a1.598 1.598 0 011.114 1.526v4.211c0 .7-.448 1.313-1.114 1.527l-4.092 1.31c-.655.21-1.209.66-1.56 1.267-1.607 2.778-4.135 5.077-7.512 6.833-.39.203-.66.567-.742.997l-1.31 6.939a.406.406 0 01-.399.33h-4.26a.406.406 0 01-.399-.33l-.726-3.835a1.418 1.418 0 00-1.612-1.14 37.724 37.724 0 01-5.621.418c-1.41 0-2.8-.079-4.135-.234a1.43 1.43 0 00-1.564 1.147l-.69 3.644a.405.405 0 01-.398.33h-4.26a.406.406 0 01-.4-.333l-1.261-6.554a1.417 1.417 0 00-.728-.985c-5.758-3.073-8.8-8.208-8.8-14.849 0-3.355.733-6.322 2.18-8.819 1.352-2.33 3.325-4.256 5.865-5.725a.903.903 0 00-.903-1.562c-4.926 2.85-7.897 7.245-8.715 12.83v-.001c-.087-.008-.174-.015-.26-.024a4.493 4.493 0 00-.331-1.8c-.524-1.302-1.599-2.241-2.74-2.393-.899-.12-1.754.26-2.348 1.045C.501 31.544.641 32.444.91 33c.454.936 1.622 1.599 3.56 2.015-.052.08-.111.16-.175.24C3.149 36.692 1.8 37.01.924 37.04a.947.947 0 00-.924.94v.005c0 .506.4.919.905.942.065.003.133.005.203.005 1.109 0 2.888-.41 4.598-2.553.27-.338.49-.695.659-1.064.17.019.334.035.49.05-.03.488-.047.984-.047 1.489 0 3.757.896 7.107 2.662 9.958 1.629 2.627 3.96 4.779 6.933 6.397l1.227 6.371a2.212 2.212 0 002.171 1.8h4.261a2.211 2.211 0 002.171-1.8l.624-3.294c1.295.137 2.636.206 3.992.206 1.86 0 3.718-.13 5.528-.385l.658 3.474a2.212 2.212 0 002.171 1.798h4.261c1.06 0 1.974-.756 2.171-1.799l1.276-6.756c3.605-1.906 6.322-4.41 8.078-7.444a.987.987 0 01.548-.452l4.092-1.31A3.397 3.397 0 0062 40.372v-4.211a3.397 3.397 0 00-2.368-3.245zm-8.618-10.724c-.347 2.97-1.279 5.51-2.215 6.04-1.064.604-3.52.72-5.364-.63-1.847-1.35-2.461-3.779-1.778-7.023.069-.326.3-.608.62-.754 4.517-2.068 7.121-2.744 8.089-2.744.146 0 .255.015.327.043.29.31.672 2.07.321 5.068zM2.534 32.211c-.094-.192.126-.531.266-.716.222-.292.426-.352.58-.352a.67.67 0 01.09.006c.416.056.997.512 1.305 1.278.072.18.166.478.189.85-1.25-.258-2.22-.631-2.43-1.066z" fill="#07A0C3"/></svg>