<svg width="50" height="62" viewBox="0 0 50 62" fill="none" xmlns="http://www.w3.org/2000/svg"><path d="M10.931 27.622h17.853a.908.908 0 100-1.816H10.93a.908.908 0 100 1.816zm0 4.513h17.853a.908.908 0 100-1.817H10.93a.908.908 0 100 1.817zm0 4.512h10.81a.908.908 0 100-1.817H10.93a.908.908 0 100 1.817zm17.207 9.493a.978.978 0 01-.594-.426c-.05-.084-.105-.21-.073-.327a.908.908 0 00-1.7-.62c-.15.325-.331.69-.572.882-.137.11-.295.128-.332.111-.041-.026-.166-.308.035-1.129a.908.908 0 00-1.14-1.087c-.296.056-1.417.078-2.649.08.15-.771.274-1.548.37-2.326a.908.908 0 10-1.802-.225c-.106.851-.245 1.7-.418 2.543a62.341 62.341 0 01-1.845-.039c-1.142-.056-2.256-.073-3.325.322a2.962 2.962 0 00-1.72 1.625c-.318.774-.281 1.603.107 2.396.607 1.238 1.916 2.08 2.945 2.364.348.096.702.143 1.053.143.977 0 1.92-.362 2.576-1.022.66-.666.963-1.536 1.195-2.298.167-.55.32-1.105.46-1.664.802 0 1.613-.006 2.271-.032.003.735.227 1.456.93 1.892.71.442 1.674.353 2.404-.22.386.418.9.718 1.45.834.95.2 2-.043 3.12-.722a.908.908 0 10-.942-1.553c-.713.432-1.32.6-1.804.497zm-9.627.438c-.176.58-.379 1.177-.747 1.547-.428.432-1.174.596-1.854.408-.73-.202-1.503-.809-1.798-1.412-.158-.322-.177-.618-.058-.906.112-.273.356-.496.669-.612.504-.187 1.083-.24 1.697-.24.297 0 .601.013.91.028.018.001.64.019 1.509.033-.102.387-.212.772-.328 1.154z" fill="#07A0C3"/><path d="M49.05 8.362c-.206-.328-.4-.638-.487-.906-.095-.29-.122-.67-.15-1.07-.054-.734-.113-1.565-.618-2.259-.51-.7-1.285-1.013-1.969-1.29-.37-.149-.719-.29-.96-.466-.236-.171-.474-.457-.727-.76-.476-.569-1.015-1.214-1.85-1.485-.803-.26-1.605-.063-2.312.112-.398.098-.774.19-1.09.19-.317 0-.693-.092-1.09-.19-.708-.175-1.51-.373-2.314-.112-.834.27-1.373.916-1.849 1.486-.253.302-.491.588-.727.759-.238.173-.581.313-.946.46H2.6A2.5 2.5 0 00.103 5.33v54.174A2.5 2.5 0 002.6 62h38.28a2.5 2.5 0 002.497-2.497V30.676a1.703 1.703 0 001.862-1.697V18.615c.179-.086.379-.168.586-.252.684-.276 1.46-.59 1.969-1.29.505-.693.564-1.524.617-2.258.03-.401.056-.78.15-1.07.088-.268.282-.578.488-.906.397-.632.847-1.348.847-2.239 0-.89-.45-1.606-.847-2.238zm-7.488 51.141a.68.68 0 01-.68.68H2.6a.681.681 0 01-.68-.68V5.33a.68.68 0 01.68-.68h27.086c-.24.566-.285 1.18-.325 1.736-.025.345-.049.673-.115.943H10.474c-.352 0-.683.137-.931.386-.25.25-.386.58-.386.931a2.843 2.843 0 01-2.988 2.836 1.319 1.319 0 00-1.389 1.314V41.91a.908.908 0 101.817 0V13.292a4.664 4.664 0 004.35-4.147h17.318c-.221.434-.39.912-.39 1.455 0 .891.45 1.607.848 2.239.206.328.4.637.487.905.062.189.095.416.118.661H11.416c-.768 0-1.393.626-1.393 1.394v5.151c0 .769.625 1.394 1.393 1.394h21.117v6.636a1.703 1.703 0 002.317 1.59l2.034-.784V51.54a4.664 4.664 0 00-4.35 4.147H10.947a4.663 4.663 0 00-4.35-4.147v-5.395a.908.908 0 10-1.817 0v5.892a1.319 1.319 0 001.388 1.314 2.843 2.843 0 012.99 2.835c-.001.352.136.683.385.932.248.249.58.386.931.386h22.533c.352 0 .683-.137.931-.386.249-.25.386-.58.386-.931a2.843 2.843 0 012.988-2.836 1.319 1.319 0 001.389-1.314v-22.95l.186-.073 2.675 1.03v29.46zm-11.583-42.43c.509.7 1.284 1.014 1.968 1.29.207.084.408.166.587.252v1.912H11.839v-4.305h17.729c.088.295.216.584.41.851zm13.444 11.743L39.5 27.304a1.702 1.702 0 00-1.225 0l-3.924 1.512v-8.441c.316.295.681.553 1.133.7.28.09.559.126.834.126.517 0 1.018-.124 1.48-.238.397-.099.773-.191 1.09-.191.316 0 .692.093 1.09.19.707.175 1.509.373 2.313.113.452-.147.817-.405 1.133-.7v8.44zm4.09-16.943c-.257.407-.521.828-.678 1.31-.163.501-.2 1.01-.235 1.502-.038.538-.075 1.046-.274 1.32-.204.28-.678.471-1.18.674-.456.184-.927.375-1.35.682-.416.303-.739.69-1.05 1.063-.35.418-.68.814-1.018.923-.31.1-.799-.02-1.316-.148-.463-.114-.988-.244-1.526-.244s-1.062.13-1.525.244c-.518.128-1.007.249-1.317.148-.337-.11-.667-.505-1.017-.923-.312-.374-.635-.76-1.051-1.063-.422-.307-.893-.498-1.349-.682-.502-.203-.977-.395-1.18-.674-.2-.274-.236-.782-.275-1.32-.035-.492-.072-1.001-.235-1.502-.156-.482-.42-.903-.677-1.31-.292-.466-.569-.905-.569-1.273 0-.367.277-.807.57-1.272.255-.407.52-.829.676-1.31.163-.501.2-1.01.235-1.502.039-.538.075-1.046.275-1.32.203-.28.678-.472 1.18-.675.456-.184.927-.374 1.349-.681.416-.303.74-.69 1.051-1.063.35-.419.68-.814 1.017-.923a.897.897 0 01.276-.038c.29 0 .658.09 1.04.185.464.115.988.244 1.526.244s1.063-.13 1.526-.244c.517-.127 1.007-.248 1.316-.147.337.109.667.504 1.017.923.312.373.635.76 1.052 1.063.422.307.893.497 1.348.681.503.204.977.396 1.18.675.2.274.236.782.275 1.32.036.492.072 1 .235 1.501.157.482.421.904.677 1.311.293.465.569.905.569 1.272 0 .368-.276.807-.569 1.273z" fill="#07A0C3"/><path d="M38.887 3.656a6.953 6.953 0 00-6.945 6.945 6.953 6.953 0 006.945 6.945 6.94 6.94 0 005.278-2.432.908.908 0 00-1.38-1.18 5.125 5.125 0 01-3.898 1.795 5.135 5.135 0 01-5.129-5.128c0-2.828 2.3-5.13 5.129-5.13a5.136 5.136 0 015.129 5.13.908.908 0 101.816 0 6.953 6.953 0 00-6.945-6.945z" fill="#07A0C3"/></svg>