<svg width="62" height="62" viewBox="0 0 62 62" fill="none" xmlns="http://www.w3.org/2000/svg"><path d="M59.388 27.833a28.355 28.355 0 00-3.872-13.727c1.982-9.481-8.042-17.19-16.676-12.88C30.702-1.2 21.24.092 13.776 5.87c-.947.726.197 2.137 1.105 1.44a26.485 26.485 0 017.547-4.05 26.447 26.447 0 018.817-1.42c1.887.016 3.763.232 5.592.642a11.84 11.84 0 00-1.93 1.888C20.783 1.956 7.339 12.878 6.695 27.068c-.745-.037-1.512.015-2.232.212.25-6.019 2.545-11.851 6.385-16.153.782-.876-.573-2.085-1.354-1.21-4.315 4.835-6.81 11.46-6.869 18.219a6.039 6.039 0 00-2.614 4.973v8.773c0 3.877 3.301 6.13 6.878 6.04 1.266 3.658 6.602 2.863 6.693-1.061V27.818c.04-2.426-2.598-4.149-4.797-3.147 1.848-11.593 13.029-20.194 24.986-18.63-2.567 4.383-1.705 10.537 2.012 14.07v2.465c.121.73.541 1.008 1.261.836l2.21-.934c4.169 1.953 9.6.956 12.783-2.166a22.282 22.282 0 011.198 4.368c-2.2-1.018-4.857.7-4.816 3.137v19.044c-.026 2.582 2.854 4.274 5.089 3.002-.005.802-.02 1.604-.051 2.398-.216 2.601-2.222 4.785-4.78 5.207-.812.08-1.74.11-2.873.094a3.52 3.52 0 00-3.392-2.591h-4.82c-4.662.192-4.663 6.836 0 7.029h4.82a3.521 3.521 0 003.4-2.621c1.024.013 2.109.05 3.126-.114 3.393-.543 6.103-3.435 6.378-6.877v-.036c.063-1.58.015-3.175 0-4.741 3.509.17 6.673-2.388 6.673-6.041v-8.773a6.039 6.039 0 00-2.601-4.964zM1.827 41.882v-8.773c0-2.647 2.329-4.37 4.83-4.226v17.224c-2.502.138-4.83-1.57-4.83-4.225zm8.325-15.679c.89 0 1.614.724 1.614 1.614v19.044c-.09 2.142-3.14 2.14-3.229 0V27.818c0-.89.724-1.615 1.614-1.615zm32.26 33.981h-4.82a1.7 1.7 0 01-1.7-1.699 1.7 1.7 0 011.7-1.699h4.82c2.253.093 2.255 3.305 0 3.398zM57.54 26.968c-.721-.197-1.49-.248-2.235-.212a24.126 24.126 0 00-1.918-7.943 11.75 11.75 0 001.365-2.315 26.548 26.548 0 012.788 10.47zm-13.52-5.297a9.825 9.825 0 01-4.348-1.002.908.908 0 00-.752-.02l-1.32.557v-1.485a.908.908 0 00-.294-.668c-6.61-6.066-2.269-17.22 6.714-17.216 13.158.545 13.155 19.29 0 19.834zM60.174 41.57c0 2.675-2.362 4.377-4.88 4.225-.01-.976-.017-1.951-.015-2.927 0-1.174-1.816-1.174-1.816 0v3.993c0 .89-.724 1.614-1.614 1.614-.89 0-1.615-.724-1.615-1.614V27.818c.087-2.137 3.139-2.147 3.229 0v10.217c0 1.174 1.816 1.174 1.816 0v-9.463c2.523-.143 4.895 1.526 4.895 4.225v8.773z" fill="#07A0C3"/><path d="M39.26 51.145c.72.173 1.14-.106 1.261-.836v-2.964C49.219 38.888 43.15 23.943 31 23.959c-7.517 0-13.633 6.115-13.633 13.63-.115 9.752 10.4 16.541 19.231 12.432l2.662 1.124zm-3.08-2.934c-7.677 3.866-17.102-2.016-16.997-10.621 0-6.515 5.301-11.815 11.817-11.815 10.703-.005 15.874 13.284 7.998 20.511a.908.908 0 00-.293.668v1.986l-1.773-.75a.908.908 0 00-.752.021z" fill="#07A0C3"/><path d="M28.572 33.405h4.857c1.173 0 1.173-1.816 0-1.816h-4.857c-1.174 0-1.174 1.816 0 1.816zm4.856 8.369h-4.856c-1.174 0-1.174 1.816 0 1.816h4.857c1.173 0 1.173-1.816 0-1.816zm2.599-5.093H25.973c-1.173 0-1.173 1.816 0 1.816h10.054c1.174 0 1.174-1.816 0-1.816zm8.071-31.856c-2.144-.04-3.957 1.732-3.957 3.877 0 1.174 1.815 1.174 1.815 0 0-1.117.984-2.086 2.106-2.061a2.067 2.067 0 012.016 1.95c.06 1.166-.89 2.174-2.06 2.174a.908.908 0 00-.907.907v3.106a.908.908 0 001.816 0v-2.307c1.793-.434 3.06-2.13 2.964-3.974a3.89 3.89 0 00-3.793-3.672zm-.079 12.162c-1.169 0-1.17 1.816 0 1.816 1.168 0 1.17-1.816 0-1.816z" fill="#07A0C3"/></svg>